<svg xmlns="http://www.w3.org/2000/svg" width="612" height="792"><path fill="#ED6B74" stroke="#FFF" stroke-miterlimit="10" d="M279.896 396.496c0 17.784-14.416 32.203-32.204 32.203H107.015c-17.786 0-32.203-14.419-32.203-32.203h0c0-17.786 14.417-32.203 32.203-32.203h140.678c17.787 0 32.203 14.417 32.203 32.203h0z"/><path fill="#FFF" stroke="#FFF" stroke-miterlimit="10" d="M279.896 468.568c0 17.784-14.416 32.203-32.204 32.203H107.015c-17.786 0-32.203-14.419-32.203-32.203h0c0-17.786 14.417-32.203 32.203-32.203h140.678c17.787 0 32.203 14.417 32.203 32.203h0z"/></svg>