<?xml version="1.0" encoding="utf-8"?>
<!-- Generator: Adobe Illustrator 15.0.0, SVG Export Plug-In . SVG Version: 6.00 Build 0)  -->
<!DOCTYPE svg PUBLIC "-//W3C//DTD SVG 1.1//EN" "http://www.w3.org/Graphics/SVG/1.1/DTD/svg11.dtd">
<svg version="1.1" id="Layer_1" xmlns="http://www.w3.org/2000/svg" xmlns:xlink="http://www.w3.org/1999/xlink" x="0px" y="0px"
	 width="612px" height="792px" viewBox="0 0 612 792" enable-background="new 0 0 612 792" xml:space="preserve">
<path fill="#ED6B74" stroke="#FFFFFF" stroke-miterlimit="10" d="M279.896,396.496c0,17.784-14.416,32.203-32.204,32.203H107.015
	c-17.786,0-32.203-14.419-32.203-32.203l0,0c0-17.786,14.417-32.203,32.203-32.203h140.678
	C265.48,364.293,279.896,378.71,279.896,396.496L279.896,396.496z"/>
<path fill="#FFFFFF" stroke="#FFFFFF" stroke-miterlimit="10" d="M279.896,468.568c0,17.784-14.416,32.203-32.204,32.203H107.015
	c-17.786,0-32.203-14.419-32.203-32.203l0,0c0-17.786,14.417-32.203,32.203-32.203h140.678
	C265.48,436.365,279.896,450.782,279.896,468.568L279.896,468.568z"/>
</svg>
